#!OML:ASF H:\Dans Jumps\Project 1\Capture day 1\Session 1\subject.ASF
:FULLY-SPECIFIED
:DEGREES
527
root 0.624841 17.7422 6.88824 7.32529 -0.969335 -1.36027
lowerback -1.2843 -0.0516456 -0.491399
upperback 2.90759 -0.105108 1.56831
thorax 3.71465 -0.0917697 1.88602
lowerneck -13.7765 -0.0459894 -1.50561
upperneck 29.1974 0.228166 0.341725
head 11.8323 -0.022158 0.419151
rclavicle 9.44227e-016 -1.94809e-014
rhumerus -27.7771 -17.5132 -78.199
rradius 22.7775
rwrist 35.1573
rhand -19.595 -25.4878
rfingers 7.12502
rthumb 6.73081 -55.3608
lclavicle 9.44227e-016 -1.94809e-014
lhumerus -23.031 6.43509 84.9134
lradius 16.5273
lwrist -0.111068
lhand -25.4599 -5.27511
lfingers 7.12502
lthumb 1.06738 24.702
rfemur -13.5138 -2.96253 19.7046
rtibia 20.2206
rfoot -12.5451 0.682708
rtoes 13.0016
lfemur -13.2379 6.93478 -17.9826
ltibia 17.505
lfoot -9.1993 4.02064
ltoes -0.433249
528
root 0.625478 17.7419 6.88763 7.30251 -0.965425 -1.35233
lowerback -1.29735 -0.0549749 -0.492387
upperback 2.90206 -0.109416 1.56565
thorax 3.71647 -0.0938804 1.88364
lowerneck -13.7406 -0.0462225 -1.51576
upperneck 29.1608 0.228194 0.346932
head 11.8105 -0.0223881 0.422659
rclavicle -1.59028e-015 -8.34896e-015
rhumerus -27.8066 -17.5737 -78.1351
rradius 22.741
rwrist 35.2177
rhand -19.5752 -25.4943
rfingers 7.12502
rthumb 6.7499 -55.3667
lclavicle -1.59028e-015 -8.34896e-015
lhumerus -22.9965 6.25434 84.9573
lradius 16.6009
lwrist 0.110114
lhand -25.5084 -5.3429
lfingers 7.12502
lthumb 1.02053 24.6344
rfemur -13.4938 -2.97488 19.6929
rtibia 20.2279
rfoot -12.5496 0.685597
rtoes 12.9968
lfemur -13.2112 6.9378 -17.9912
ltibia 17.4968
lfoot -9.20142 4.01126
ltoes -0.413573
529
root 0.626038 17.7416 6.88683 7.28189 -0.960948 -1.34788
lowerback -1.31086 -0.0577739 -0.490471
upperback 2.896 -0.113154 1.56452
thorax 3.71795 -0.0956422 1.88122
lowerneck -13.7024 -0.0468655 -1.52931
upperneck 29.1158 0.227284 0.356099
head 11.7849 -0.0228584 0.428063
rclavicle 2.73329e-015 -1.70955e-014
rhumerus -27.8379 -17.6205 -78.0753
rradius 22.7177
rwrist 35.2646
rhand -19.5539 -25.5149
rfingers 7.12502
rthumb 6.77043 -55.3866
lclavicle 2.73329e-015 -1.70955e-014
lhumerus -22.9623 6.07568 85.0007
lradius 16.6772
lwrist 0.327049
lhand -25.5503 -5.40831
lfingers 7.12502
lthumb 0.98011 24.5692
rfemur -13.4766 -2.9814 19.6856
rtibia 20.2353
rfoot -12.5534 0.681666
rtoes 12.9856
lfemur -13.1892 6.94233 -17.9958
ltibia 17.491
lfoot -9.20273 3.99981
ltoes -0.401139
530
root 0.626545 17.7412 6.8859 7.26208 -0.958162 -1.34083
lowerback -1.3231 -0.0600819 -0.491607
upperback 2.88898 -0.116106 1.56285
thorax 3.71771 -0.0970764 1.87999
lowerneck -13.6618 -0.0468396 -1.53961
upperneck 29.0623 0.228147 0.359485
head 11.7556 -0.0228522 0.430963
rclavicle 4.07509e-015 -7.95139e-016
rhumerus -27.8679 -17.6546 -78.0203
rradius 22.6996
rwrist 35.2983
rhand -19.5337 -25.5491
rfingers 7.12502
rthumb 6.78996 -55.4202
lclavicle 4.07509e-015 -7.95139e-016
lhumerus -22.9311 5.89897 85.043
lradius 16.7575
lwrist 0.535783
lhand -25.5869 -5.45524
lfingers 7.12502
lthumb 0.944753 24.5224
rfemur -13.461 -2.98231 19.6755
rtibia 20.2434
rfoot -12.5582 0.673587
rtoes 12.968
lfemur -13.1695 6.94775 -18.0032
ltibia 17.4872
lfoot -9.2046 3.98795
ltoes -0.388479
531
root 0.626945 17.7409 6.88483 7.242 -0.956653 -1.3339
lowerback -1.33247 -0.0618765 -0.493546
upperback 2.88076 -0.118331 1.56136
thorax 3.71458 -0.0981495 1.87942
lowerneck -13.6244 -0.0452349 -1.55144
upperneck 29.0068 0.230643 0.366492
head 11.7261 -0.0218089 0.435695
rclavicle -2.98177e-016 -5.96354e-015
rhumerus -27.8996 -17.6791 -77.9685
rradius 22.6864
rwrist 35.3229
rhand -19.5258 -25.5742
rfingers 7.12502
rthumb 6.79757 -55.445
lclavicle -2.98177e-016 -5.96354e-015
lhumerus -22.9087 5.73744 85.0809
lradius 16.844
lwrist 0.71969
lhand -25.6107 -5.49142
lfingers 7.12502
lthumb 0.92177 24.4863
rfemur -13.4455 -2.97732 19.6658
rtibia 20.2507
rfoot -12.5614 0.661776
rtoes 12.9491
lfemur -13.1522 6.9545 -18.0099
ltibia 17.488
lfoot -9.20776 3.97619
ltoes -0.382433
532
root 0.627287 17.7405 6.88371 7.22134 -0.955552 -1.32789
lowerback -1.34208 -0.0639377 -0.495396
upperback 2.87293 -0.120933 1.56027
thorax 3.712 -0.0994201 1.8792
lowerneck -13.5921 -0.0420495 -1.56296
upperneck 28.9501 0.23572 0.37249
head 11.6972 -0.0196912 0.440353
rclavicle -7.95139e-016 -1.03368e-014
rhumerus -27.9283 -17.6935 -77.9213
rradius 22.6753
rwrist 35.3384
rhand -19.5249 -25.5928
rfingers 7.12502
rthumb 6.79844 -55.4637
lclavicle -7.95139e-016 -1.03368e-014
lhumerus -22.8897 5.59272 85.1142
lradius 16.928
lwrist 0.875345
lhand -25.6367 -5.54394
lfingers 7.12502
lthumb 0.896603 24.4339
rfemur -13.4296 -2.9721 19.6573
rtibia 20.2574
rfoot -12.5652 0.650784
rtoes 12.9271
lfemur -13.1361 6.9644 -18.0155
ltibia 17.4918
lfoot -9.21242 3.9615
ltoes -0.372898
533
root 0.627657 17.74 6.88259 7.20192 -0.953652 -1.32849
lowerback -1.35329 -0.0658909 -0.489642
upperback 2.86512 -0.12369 1.56068
thorax 3.71034 -0.100578 1.87625
lowerneck -13.5674 -0.0346144 -1.56634
upperneck 28.8926 0.246623 0.372726
head 11.6695 -0.0147843 0.442281
rclavicle -2.48481e-016 -4.96962e-015
rhumerus -27.9539 -17.7015 -77.8773
rradius 22.6647
rwrist 35.3493
rhand -19.5287 -25.601
rfingers 7.12502
rthumb 6.79484 -55.472
lclavicle -2.48481e-016 -4.96962e-015
lhumerus -22.8759 5.45742 85.1453
lradius 17.0184
lwrist 1.00851
lhand -25.6373 -5.54294
lfingers 7.12502
lthumb 0.896016 24.4349
rfemur -13.4138 -2.96547 19.656
rtibia 20.2622
rfoot -12.5685 0.639141
rtoes 12.9102
lfemur -13.1231 6.97468 -18.0138
ltibia 17.4989
lfoot -9.21742 3.94616
ltoes -0.357846
534
root 0.628083 17.7397 6.88146 7.18423 -0.950132 -1.32934
lowerback -1.36609 -0.0691164 -0.483659
upperback 2.85687 -0.128185 1.56199
thorax 3.70919 -0.102611 1.87402
lowerneck -13.5452 -0.0243453 -1.56489
upperneck 28.83 0.262224 0.366686
head 11.6404 -0.00799673 0.441682
rclavicle -9.69075e-015 1.19271e-014
rhumerus -27.9773 -17.6983 -77.837
rradius 22.6586
rwrist 35.3556
rhand -19.5343 -25.6001
rfingers 7.12502
rthumb 6.78942 -55.4712
lclavicle -9.69075e-015 1.19271e-014
lhumerus -22.8655 5.32647 85.1765
lradius 17.1133
lwrist 1.12826
lhand -25.6487 -5.55983
lfingers 7.12502
lthumb 0.88502 24.4181
rfemur -13.3988 -2.96004 19.6549
rtibia 20.2646
rfoot -12.5692 0.627937
rtoes 12.8962
lfemur -13.1138 6.98468 -18.0125
ltibia 17.508
lfoot -9.22281 3.93009
ltoes -0.340176
535
root 0.628616 17.7394 6.88039 7.16931 -0.943197 -1.33238
lowerback -1.38501 -0.0738112 -0.474872
upperback 2.85109 -0.134831 1.56475
thorax 3.71414 -0.105708 1.87163
lowerneck -13.5243 -0.0130616 -1.55625
upperneck 28.7536 0.279914 0.352051
head 11.6062 -0.000474982 0.436896
rclavicle -2.78299e-015 1.19271e-015
rhumerus -27.9899 -17.69 -77.8005
rradius 22.6522
rwrist 35.362
rhand -19.5381 -25.594
rfingers 7.12502
rthumb 6.78574 -55.4653
lclavicle -2.78299e-015 1.19271e-015
lhumerus -22.8427 5.19023 85.2103
lradius 17.1976
lwrist 1.24597
lhand -25.6723 -5.58724
lfingers 7.12502
lthumb 0.86228 24.3908
rfemur -13.3852 -2.95985 19.656
rtibia 20.2655
rfoot -12.569 0.618886
rtoes 12.8861
lfemur -13.1079 6.99355 -18.0096
ltibia 17.5175
lfoot -9.22784 3.91239
ltoes -0.319128
